<svg width="14" height="10" viewBox="0 0 14 10" fill="none" xmlns="http://www.w3.org/2000/svg">
<path d="M1.4584 3.54169H2.91672C2.8269 3.54169 2.7423 3.50026 2.6869 3.42969C2.63147 3.35911 2.61222 3.26694 2.63382 3.17944L2.81525 2.45436C2.91267 2.06411 3.26207 1.79169 3.664 1.79169H5.54175C6.02417 1.79169 6.41675 2.18426 6.41675 2.66669V3.25001C6.41675 3.41101 6.28607 3.54169 6.12507 3.54169H7.87507C7.71407 3.54169 7.5834 3.41101 7.5834 3.25001V2.66669C7.5834 2.18426 7.97597 1.79169 8.4584 1.79169H10.3361C10.7381 1.79169 11.0875 2.06411 11.1849 2.45436L11.3663 3.17944C11.3885 3.26636 11.3686 3.35911 11.3132 3.42969C11.2578 3.50026 11.1732 3.54169 11.0834 3.54169H12.5417C12.7027 3.54169 12.8334 3.41101 12.8334 3.25001V1.50001C12.8334 0.696187 12.1789 0.041687 11.3751 0.041687H2.62507C1.82125 0.041687 1.16675 0.696187 1.16675 1.50001V3.25001C1.16675 3.41101 1.2974 3.54169 1.4584 3.54169Z" fill="#323232"/>
<path d="M12.5417 4.125H1.45832C0.6545 4.125 0 4.7795 0 5.58332V9.66665C0 9.82765 0.130676 9.95832 0.291676 9.95832C0.452676 9.95832 0.583352 9.82765 0.583352 9.66665V8.79165H13.4167V9.66665C13.4167 9.82765 13.5474 9.95832 13.7084 9.95832C13.8694 9.95832 14 9.82765 14 9.66665V5.58332C14 4.7795 13.3455 4.125 12.5417 4.125ZM13.4167 8.20832H0.583324V7.625H13.4166V8.20832H13.4167Z" fill="#323232"/>
</svg>
